<svg width="36" height="36" viewBox="0 0 36 36" fill="none" xmlns="http://www.w3.org/2000/svg">
<path d="M24.9217 18.1504C24.8696 18.0423 24.8043 17.9463 24.713 17.8623L20.8 14.2611C20.4217 13.913 19.7957 13.913 19.4174 14.2611C19.0391 14.6092 19.0391 15.1854 19.4174 15.5335L21.6609 17.5982H12.9783C12.4435 17.5982 12 18.0063 12 18.4985C12 18.9907 12.4435 19.3988 12.9783 19.3988H21.6609L19.4174 21.4635C19.0391 21.8116 19.0391 22.3878 19.4174 22.7359C19.613 22.916 19.8609 23 20.1087 23C20.3565 23 20.6043 22.916 20.8 22.7359L24.713 19.1347C24.8043 19.0507 24.8696 18.9547 24.9217 18.8466C25.0261 18.6305 25.0261 18.3785 24.9217 18.1624V18.1504Z" fill="black"/>
</svg>
